<svg viewBox="0 0 371.37 446.7" xmlns="http://www.w3.org/2000/svg"><path d="m73.48 245.5a4.5 4.5 0 0 1 -3.07-7.79l91.71-85.71a4.5 4.5 0 1 1 6.15 6.57l-91.72 85.71a4.5 4.5 0 0 1 -3.07 1.22z" fill="#25252d"/><path d="m205.64 126.43a4.5 4.5 0 0 1 -3.07-7.79l91.72-85.64a4.5 4.5 0 1 1 6.14 6.57l-91.72 85.69a4.47 4.47 0 0 1 -3.07 1.17z" fill="#25252d"/><rect fill="#5dcbfd" height="360.85" rx="24.27" width="99.46" x="263.94" y="36.25"/><rect fill="#5dcbfd" height="134.82" rx="24.27" width="99.46" x="4.5" y="259.06"/><path d="m104.42 280.62v90.38c0 12.28-15.75 22.24-35.15 22.24h-43.44v-134.85h43.44c19.4 0 35.15 9.95 35.15 22.23z" fill="#373635"/><path d="m234.14 280.62v90.38a22.25 22.25 0 0 1 -22.25 22.24h-27.48v-134.85h27.48a22.24 22.24 0 0 1 22.25 22.23z" fill="#373635"/><path d="m104 372.55v1.73a22.23 22.23 0 0 1 -22.23 22.23h-55a22.24 22.24 0 0 1 -22.27-22.23v-1.73c0 12.28 10 10.33 22.24 10.33h55c12.26 0 22.26 1.95 22.26-10.33z" fill="#21201f" opacity=".5"/><path d="m81.91 398.38h-55.36a26.58 26.58 0 0 1 -26.55-26.55v-90.72a26.58 26.58 0 0 1 26.55-26.55h55.37a26.58 26.58 0 0 1 26.54 26.55v90.72a26.58 26.58 0 0 1 -26.55 26.55zm-55.36-134.82a17.57 17.57 0 0 0 -17.55 17.55v90.72a17.57 17.57 0 0 0 17.55 17.55h55.36a17.57 17.57 0 0 0 17.55-17.55v-90.72a17.56 17.56 0 0 0 -17.54-17.55z" fill="#25252d"/><rect fill="#373635" height="255.93" rx="24.27" width="99.46" x="134.22" y="141.17"/><path d="m211.64 401.59h-55.37a26.58 26.58 0 0 1 -26.55-26.59v-211.78a26.58 26.58 0 0 1 26.55-26.55h55.37a26.58 26.58 0 0 1 26.55 26.55v211.78a26.58 26.58 0 0 1 -26.55 26.59zm-55.37-255.92a17.57 17.57 0 0 0 -17.55 17.55v211.78a17.57 17.57 0 0 0 17.55 17.55h55.37a17.57 17.57 0 0 0 17.55-17.55v-211.78a17.57 17.57 0 0 0 -17.55-17.55z" fill="#25252d"/><circle cx="54.23" cy="257.44" fill="#fff" r="25.32"/><path d="m79.55 256.56a25.32 25.32 0 1 1 -49.86-6.25 25.32 25.32 0 0 0 49.08 0 24.78 24.78 0 0 1 .78 6.25z" fill="#e1e4fe"/><path d="m54.23 287.26a29.82 29.82 0 1 1 29.82-29.82 29.86 29.86 0 0 1 -29.82 29.82zm0-50.64a20.82 20.82 0 1 0 20.82 20.82 20.84 20.84 0 0 0 -20.82-20.82z" fill="#25252d"/><circle cx="183.95" cy="138.31" fill="#fff" r="25.32"/><path d="m233.69 375.29v1.71a22.24 22.24 0 0 1 -22.24 22.23h-55a22.24 22.24 0 0 1 -22.23-22.23v-1.74c0 12.29 10 10.33 22.25 10.33h55c12.26.03 22.22 1.99 22.22-10.3z" fill="#21201f" opacity=".5"/><path d="m363.41 324.59a80.88 80.88 0 0 1 -99.47 0c-5.46 13.26 0 44.55 0 15.48v4.1c0 29.06 6 52.62 18.25 52.62h63c12.28 0 18.24-23.56 18.24-52.62z" fill="#4faefd"/><path d="m209.14 136.61a25.32 25.32 0 1 1 -49.86-6.25 25.32 25.32 0 0 0 49.08 0 25.24 25.24 0 0 1 .78 6.25z" fill="#e1e4fe"/><path d="m184 168.13a29.82 29.82 0 1 1 29.82-29.82 29.86 29.86 0 0 1 -29.82 29.82zm0-50.64a20.82 20.82 0 1 0 20.82 20.82 20.84 20.84 0 0 0 -20.82-20.82z" fill="#25252d"/><path d="m137.15 437.7h92.82v9h-92.82z" fill="#25252d"/><path d="m113.69 437.7h11v9h-11z" fill="#25252d"/><path d="m242.44 437.7h12.69v9h-12.69z" fill="#25252d"/><path d="m342.02 69.17h7v60.47h-7z" fill="#fff"/><path d="m341.85 138.69h7v18.12h-7z" fill="#fff"/><path d="m341.36 401.59h-55.36a26.58 26.58 0 0 1 -26.56-26.59v-316.7a26.58 26.58 0 0 1 26.56-26.55h55.37a26.58 26.58 0 0 1 26.54 26.55v316.7a26.58 26.58 0 0 1 -26.55 26.59zm-55.36-360.84a17.57 17.57 0 0 0 -17.56 17.55v316.7a17.57 17.57 0 0 0 17.56 17.59h55.37a17.57 17.57 0 0 0 17.54-17.59v-316.7a17.57 17.57 0 0 0 -17.55-17.55z" fill="#25252d"/><circle cx="315.99" cy="54.17" fill="#4faefd" r="27.62"/><g fill="#fff"><path d="m210.36 205.6h7v55.47h-7z" opacity=".5"/><path d="m210.19 272.12h7v11.12h-7z" opacity=".5"/><path d="m358.91 182.88h12.46v12.46h-12.46z" transform="matrix(0 1 -1 0 554.25 -176.03)"/><path d="m358.91 207.8h12.46v12.46h-12.46z" transform="matrix(0 1 -1 0 579.17 -151.1)"/><path d="m358.91 232.73h12.46v12.46h-12.46z" transform="matrix(0 1 -1 0 604.1 -126.18)"/><path d="m358.91 257.66h12.46v12.46h-12.46z" transform="matrix(0 1 -1 0 629.03 -101.25)"/><path d="m113.66 190.24h12.46v12.46h-12.46z" transform="matrix(-.72813175 .6854372 -.6854372 -.72813175 341.85 257.34)"/><path d="m95.51 207.32h12.46v12.46h-12.46z" transform="matrix(-.72813175 .6854372 -.6854372 -.72813175 322.2 299.31)"/><path d="m77.36 224.41h12.46v12.46h-12.46z" transform="matrix(-.72813175 .6854372 -.6854372 -.72813175 302.55 341.28)"/><circle cx="316.99" cy="32.71" r="27.62"/></g><path d="m342 31.37a27.63 27.63 0 1 1 -55.25 0 27.35 27.35 0 0 1 .85-6.82 27.63 27.63 0 0 0 53.55 0 27.35 27.35 0 0 1 .85 6.82z" fill="#e1e4fe"/><path d="m315.31 64.25a32.13 32.13 0 1 1 32.13-32.13 32.16 32.16 0 0 1 -32.13 32.13zm0-55.25a23.13 23.13 0 1 0 23.13 23.12 23.14 23.14 0 0 0 -23.13-23.12z" fill="#25252d"/></svg>