<svg viewBox="0 0 400 300" xmlns="http://www.w3.org/2000/svg"><path d="m298.44 222.43a10.34 10.34 0 0 0 .42-2.88c0-8.22-10-14.88-22.38-14.88s-22.38 6.66-22.38 14.88a10 10 0 0 0 .43 2.88z" fill="#68e1fd"/><path d="m298.44 223.43h-43.91a1 1 0 0 1 -1-.72 11.2 11.2 0 0 1 -.47-3.16c0-8.76 10.49-15.88 23.38-15.88s23.38 7.12 23.38 15.88a10.86 10.86 0 0 1 -.47 3.16 1 1 0 0 1 -.91.72zm-43.14-2h42.36a9.32 9.32 0 0 0 .2-1.88c0-7.66-9.59-13.88-21.38-13.88s-21.38 6.22-21.38 13.88a9.32 9.32 0 0 0 .2 1.88z" fill="#093f68"/><path d="m276.48 214.55a1 1 0 0 1 -1-1v-8.88a1 1 0 1 1 2 0v8.88a1 1 0 0 1 -1 1z" fill="#093f68"/><rect fill="#725858" height="12.48" rx="5.77" width="236.2" x="81.9" y="222.43"/><path d="m312.33 235.91h-224.66a6.78 6.78 0 0 1 -6.77-6.77v-.94a6.78 6.78 0 0 1 6.77-6.77h224.66a6.78 6.78 0 0 1 6.77 6.77v.94a6.78 6.78 0 0 1 -6.77 6.77zm-224.66-12.48a4.78 4.78 0 0 0 -4.77 4.77v.94a4.78 4.78 0 0 0 4.77 4.77h224.66a4.78 4.78 0 0 0 4.77-4.77v-.94a4.78 4.78 0 0 0 -4.77-4.77z" fill="#093f68"/><rect fill="#68e1fd" height="122.89" rx="9.99" width="162.58" x="118.71" y="73.11"/><path d="m271.3 197h-142.6a11 11 0 0 1 -11-11v-102.9a11 11 0 0 1 11-11h142.6a11 11 0 0 1 11 11v102.9a11 11 0 0 1 -11 11zm-142.6-122.89a9 9 0 0 0 -9 9v102.89a9 9 0 0 0 9 9h142.6a9 9 0 0 0 9-9v-102.9a9 9 0 0 0 -9-9z" fill="#093f68"/><path d="m228.82 222.43h-57.64l6.02-26.43h45.6z" fill="#68e1fd"/><path d="m228.82 223.43h-57.64a1 1 0 0 1 -.78-.38 1 1 0 0 1 -.19-.84l6-26.43a1 1 0 0 1 1-.78h45.6a1 1 0 0 1 1 .78l6 26.43a1 1 0 0 1 -.19.84 1 1 0 0 1 -.8.38zm-56.38-2h55.12l-5.56-24.43h-44z" fill="#093f68"/><path d="m129.79 83.35h140.41v91.21h-140.41z" fill="#fff"/><path d="m270.21 175.56h-140.42a1 1 0 0 1 -1-1v-91.21a1 1 0 0 1 1-1h140.42a1 1 0 0 1 1 1v91.21a1 1 0 0 1 -1 1zm-139.42-2h138.42v-89.21h-138.42z" fill="#093f68"/><path d="m129.79 83.35h41.39v91.21h-41.39z" fill="#fff"/><g fill="#093f68"><path d="m171.18 175.56h-41.39a1 1 0 0 1 -1-1v-91.21a1 1 0 0 1 1-1h41.39a1 1 0 0 1 1 1v91.21a1 1 0 0 1 -1 1zm-40.39-2h39.39v-89.21h-39.39z"/><path d="m171.18 83.35h99.02v91.21h-99.02z"/><path d="m270.21 175.56h-99a1 1 0 0 1 -1-1v-91.21a1 1 0 0 1 1-1h99a1 1 0 0 1 1 1v91.21a1 1 0 0 1 -1 1zm-98-2h97v-89.21h-97z"/><path d="m158.72 95.89h-16.8a1 1 0 0 1 0-2h16.8a1 1 0 0 1 0 2z"/><path d="m161.6 105.73h-14.16a1 1 0 0 1 0-2h14.16a1 1 0 0 1 0 2z"/><path d="m163.52 115.57h-11.76a1 1 0 0 1 0-2h11.76a1 1 0 1 1 0 2z"/><path d="m159.68 125.41h-14.88a1 1 0 0 1 0-2h14.88a1 1 0 0 1 0 2z"/><path d="m155.68 135.25h-13.76a1 1 0 1 1 0-2h13.76a1 1 0 0 1 0 2z"/><path d="m158.72 145.09h-12.16a1 1 0 0 1 0-2h12.16a1 1 0 0 1 0 2z"/><path d="m154.52 154.93h-12.6a1 1 0 0 1 0-2h12.6a1 1 0 1 1 0 2z"/><path d="m158.72 164.77h-12.16a1 1 0 0 1 0-2h12.16a1 1 0 0 1 0 2z"/></g><path d="m201 95.89h-16.8a1 1 0 0 1 0-2h16.8a1 1 0 0 1 0 2z" fill="#fff"/><path d="m224.16 105.73h-34.48a1 1 0 0 1 0-2h34.48a1 1 0 0 1 0 2z" fill="#ffbc0e"/><path d="m215.6 115.57h-25.92a1 1 0 0 1 0-2h25.92a1 1 0 0 1 0 2z" fill="#ffbc0e"/><path d="m201.92 125.41h-14.92a1 1 0 0 1 0-2h14.88a1 1 0 0 1 0 2z" fill="#fff"/><path d="m207.84 135.25h-16.84a1 1 0 1 1 0-2h16.8a1 1 0 1 1 0 2z" fill="#f56132"/><path d="m216.4 145.09h-25.94a1 1 0 0 1 0-2h25.94a1 1 0 0 1 0 2z" fill="#fff"/><path d="m196.76 154.93h-12.6a1 1 0 0 1 0-2h12.6a1 1 0 0 1 0 2z" fill="#fff"/><path d="m216.4 164.77h-27.6a1 1 0 0 1 0-2h27.6a1 1 0 0 1 0 2z" fill="#70cc40"/><path d="m242.84 164.77h-18.12a1 1 0 0 1 0-2h18.12a1 1 0 0 1 0 2z" fill="#ffbc0e"/><path d="m237 115.57h-12.8a1 1 0 0 1 0-2h12.8a1 1 0 0 1 0 2z" fill="#fff"/><path d="m255.21 105.73h-24.65a1 1 0 0 1 0-2h24.65a1 1 0 1 1 0 2z" fill="#68e1fd"/><path d="m251.12 115.57h-7.2a1 1 0 0 1 0-2h7.2a1 1 0 0 1 0 2z" fill="#f56132"/><path d="m220 135.25h-7.2a1 1 0 0 1 0-2h7.2a1 1 0 0 1 0 2z" fill="#f56132"/><path d="m255.21 135.25h-29.29a1 1 0 1 1 0-2h29.29a1 1 0 1 1 0 2z" fill="#ffbc0e"/><path d="m230.56 145.09h-6.4a1 1 0 0 1 0-2h6.4a1 1 0 0 1 0 2z" fill="#68e1fd"/><path d="m255.21 164.77h-4.09a1 1 0 0 1 0-2h4.09a1 1 0 0 1 0 2z" fill="#fff"/><rect fill="#fff" height="55.32" rx="4.36" width="69.99" x="243.35" y="65.09"/><path d="m309 121.41h-61.29a5.37 5.37 0 0 1 -5.36-5.36v-46.6a5.37 5.37 0 0 1 5.36-5.36h61.29a5.37 5.37 0 0 1 5.36 5.36v46.6a5.37 5.37 0 0 1 -5.36 5.36zm-61.29-55.32a3.37 3.37 0 0 0 -3.36 3.36v46.6a3.37 3.37 0 0 0 3.36 3.36h61.29a3.37 3.37 0 0 0 3.36-3.36v-46.6a3.37 3.37 0 0 0 -3.36-3.36z" fill="#093f68"/><path d="m313.34 78.73h-70a1 1 0 0 1 0-2h70a1 1 0 0 1 0 2z" fill="#093f68"/><circle cx="250.05" cy="71.24" fill="#68e1fd" r="2.01"/><circle cx="256.37" cy="71.24" fill="#093f68" r="2.01"/><circle cx="262.68" cy="71.24" fill="#093f68" r="2.01"/><path d="m269.73 107.19a.94.94 0 0 1 -.63-.23l-9.42-7.8a1 1 0 0 1 0-1.54l9.42-7.81a1 1 0 0 1 1.27 1.54l-8.48 7 8.48 7a1 1 0 0 1 .13 1.41 1 1 0 0 1 -.77.43z" fill="#68e1fd"/><path d="m287 107.19a1 1 0 0 1 -.77-.36 1 1 0 0 1 .13-1.41l8.48-7-8.48-7a1 1 0 0 1 1.28-1.54l9.36 7.74a1 1 0 0 1 0 1.54l-9.4 7.84a1 1 0 0 1 -.6.19z" fill="#68e1fd"/><path d="m273.29 111.84a1.14 1.14 0 0 1 -.4-.08 1 1 0 0 1 -.51-1.32l11-24.91a1 1 0 0 1 1.32-.51 1 1 0 0 1 .51 1.32l-11 24.91a1 1 0 0 1 -.92.59z" fill="#68e1fd"/><rect fill="#fff" height="28.99" rx="3.83" width="54.22" x="103.76" y="180.22"/><path d="m154.15 210.22h-46.56a4.84 4.84 0 0 1 -4.83-4.83v-21.34a4.84 4.84 0 0 1 4.83-4.83h46.56a4.83 4.83 0 0 1 4.83 4.83v21.34a4.83 4.83 0 0 1 -4.83 4.83zm-46.56-29a2.83 2.83 0 0 0 -2.83 2.83v21.34a2.83 2.83 0 0 0 2.83 2.83h46.56a2.83 2.83 0 0 0 2.83-2.83v-21.34a2.83 2.83 0 0 0 -2.83-2.83z" fill="#093f68"/><path d="m114.85 190.31h1.51v3.38h4v-3.38h1.51v8.5h-1.51v-3.75h-4v3.75h-1.51z" fill="#68e1fd"/><path d="m125.48 191.68h-2.61v-1.37h6.72v1.37h-2.59v7.13h-1.51z" fill="#68e1fd"/><path d="m130.66 190.31h2.34l2.27 5.95 2.29-5.95h2.28v8.5h-1.44v-7.06l-2.58 7.06h-1.12l-2.57-7.06v7.06h-1.44z" fill="#68e1fd"/><path d="m141.74 190.31h1.51v7.13h3.61v1.37h-5.12z" fill="#68e1fd"/></svg>